<mxfile host="app.diagrams.net" modified="2023-09-14T13:42:16.919Z" agent="Mozilla/5.0 (Windows NT 10.0; Win64; x64) AppleWebKit/537.36 (KHTML, like Gecko) Chrome/116.0.0.0 Safari/537.36" etag="ksfLgxRSH4tPepUVhlzt" version="21.7.5" type="device">
  <diagram id="Sb8rje5TeF0Kjb5kD3xn" name="Page-1">
    <mxGraphModel dx="2037" dy="766" grid="1" gridSize="10" guides="1" tooltips="1" connect="1" arrows="1" fold="1" page="1" pageScale="1" pageWidth="1000" pageHeight="480" math="0" shadow="0">
      <root>
        <mxCell id="0" />
        <mxCell id="1" parent="0" />
        <mxCell id="gOSS8emD0hogOPw5Sccv-41" value="" style="ellipse;whiteSpace=wrap;html=1;aspect=fixed;fillColor=#dae8fc;strokeColor=#6c8ebf;opacity=50;" vertex="1" parent="1">
          <mxGeometry x="30" y="10" width="400" height="400" as="geometry" />
        </mxCell>
        <mxCell id="gOSS8emD0hogOPw5Sccv-42" value="" style="shape=mxgraph.signs.transportation.car_4;html=1;pointerEvents=1;fillColor=#000000;strokeColor=none;verticalLabelPosition=bottom;verticalAlign=top;align=center;" vertex="1" parent="1">
          <mxGeometry x="212.89999999999998" y="195" width="34.19" height="30" as="geometry" />
        </mxCell>
        <mxCell id="gOSS8emD0hogOPw5Sccv-43" value="" style="shape=mxgraph.signs.transportation.car_4;html=1;pointerEvents=1;fillColor=#d5e8d4;strokeColor=#82b366;verticalLabelPosition=bottom;verticalAlign=top;align=center;" vertex="1" parent="1">
          <mxGeometry x="140" y="110" width="34.19" height="30" as="geometry" />
        </mxCell>
        <mxCell id="gOSS8emD0hogOPw5Sccv-44" value="" style="shape=mxgraph.signs.transportation.car_4;html=1;pointerEvents=1;fillColor=#d5e8d4;strokeColor=#82b366;verticalLabelPosition=bottom;verticalAlign=top;align=center;" vertex="1" parent="1">
          <mxGeometry x="350" y="195" width="34.19" height="30" as="geometry" />
        </mxCell>
        <mxCell id="gOSS8emD0hogOPw5Sccv-45" value="" style="shape=mxgraph.signs.transportation.car_4;html=1;pointerEvents=1;fillColor=#d5e8d4;strokeColor=#82b366;verticalLabelPosition=bottom;verticalAlign=top;align=center;" vertex="1" parent="1">
          <mxGeometry x="100" y="225" width="34.19" height="30" as="geometry" />
        </mxCell>
        <mxCell id="gOSS8emD0hogOPw5Sccv-46" value="" style="shape=mxgraph.signs.transportation.car_4;html=1;pointerEvents=1;fillColor=#d5e8d4;strokeColor=#82b366;verticalLabelPosition=bottom;verticalAlign=top;align=center;" vertex="1" parent="1">
          <mxGeometry x="270" y="280" width="34.19" height="30" as="geometry" />
        </mxCell>
        <mxCell id="gOSS8emD0hogOPw5Sccv-47" value="" style="shape=mxgraph.signs.transportation.car_4;html=1;pointerEvents=1;fillColor=#d5e8d4;strokeColor=#82b366;verticalLabelPosition=bottom;verticalAlign=top;align=center;" vertex="1" parent="1">
          <mxGeometry x="285.80999999999995" y="195" width="34.19" height="30" as="geometry" />
        </mxCell>
        <mxCell id="gOSS8emD0hogOPw5Sccv-48" value="" style="shape=mxgraph.signs.transportation.car_4;html=1;pointerEvents=1;fillColor=#d5e8d4;strokeColor=#82b366;verticalLabelPosition=bottom;verticalAlign=top;align=center;" vertex="1" parent="1">
          <mxGeometry x="260" y="100" width="34.19" height="30" as="geometry" />
        </mxCell>
        <mxCell id="gOSS8emD0hogOPw5Sccv-49" value="" style="shape=mxgraph.signs.transportation.car_4;html=1;pointerEvents=1;fillColor=#d5e8d4;strokeColor=#82b366;verticalLabelPosition=bottom;verticalAlign=top;align=center;" vertex="1" parent="1">
          <mxGeometry x="160" y="320" width="34.19" height="30" as="geometry" />
        </mxCell>
        <mxCell id="gOSS8emD0hogOPw5Sccv-50" value="" style="shape=mxgraph.signs.transportation.car_4;html=1;pointerEvents=1;fillColor=#d5e8d4;strokeColor=#82b366;verticalLabelPosition=bottom;verticalAlign=top;align=center;" vertex="1" parent="1">
          <mxGeometry x="315.80999999999995" y="340" width="34.19" height="30" as="geometry" />
        </mxCell>
        <mxCell id="gOSS8emD0hogOPw5Sccv-51" value="" style="shape=mxgraph.signs.transportation.car_4;html=1;pointerEvents=1;fillColor=#d5e8d4;strokeColor=#82b366;verticalLabelPosition=bottom;verticalAlign=top;align=center;" vertex="1" parent="1">
          <mxGeometry x="225.80999999999995" y="20" width="34.19" height="30" as="geometry" />
        </mxCell>
        <mxCell id="gOSS8emD0hogOPw5Sccv-52" value="" style="shape=mxgraph.signs.transportation.car_4;html=1;pointerEvents=1;fillColor=#d5e8d4;strokeColor=#82b366;verticalLabelPosition=bottom;verticalAlign=top;align=center;" vertex="1" parent="1">
          <mxGeometry x="225.80999999999995" y="140" width="34.19" height="30" as="geometry" />
        </mxCell>
        <mxCell id="gOSS8emD0hogOPw5Sccv-53" value="" style="shape=mxgraph.signs.transportation.car_4;html=1;pointerEvents=1;fillColor=#d5e8d4;strokeColor=#82b366;verticalLabelPosition=bottom;verticalAlign=top;align=center;" vertex="1" parent="1">
          <mxGeometry x="80" y="150" width="34.19" height="30" as="geometry" />
        </mxCell>
        <mxCell id="gOSS8emD0hogOPw5Sccv-54" value="" style="ellipse;whiteSpace=wrap;html=1;aspect=fixed;fillColor=#dae8fc;strokeColor=#6c8ebf;opacity=50;" vertex="1" parent="1">
          <mxGeometry x="550" y="10" width="400" height="400" as="geometry" />
        </mxCell>
        <mxCell id="gOSS8emD0hogOPw5Sccv-55" value="" style="shape=mxgraph.signs.transportation.car_4;html=1;pointerEvents=1;fillColor=#000000;strokeColor=none;verticalLabelPosition=bottom;verticalAlign=top;align=center;" vertex="1" parent="1">
          <mxGeometry x="732.9000000000001" y="195" width="34.19" height="30" as="geometry" />
        </mxCell>
        <mxCell id="gOSS8emD0hogOPw5Sccv-56" value="" style="shape=mxgraph.signs.transportation.car_4;html=1;pointerEvents=1;fillColor=#d5e8d4;strokeColor=#82b366;verticalLabelPosition=bottom;verticalAlign=top;align=center;opacity=40;" vertex="1" parent="1">
          <mxGeometry x="660" y="110" width="34.19" height="30" as="geometry" />
        </mxCell>
        <mxCell id="gOSS8emD0hogOPw5Sccv-57" value="" style="shape=mxgraph.signs.transportation.car_4;html=1;pointerEvents=1;fillColor=#d5e8d4;strokeColor=#82b366;verticalLabelPosition=bottom;verticalAlign=top;align=center;opacity=40;" vertex="1" parent="1">
          <mxGeometry x="870" y="195" width="34.19" height="30" as="geometry" />
        </mxCell>
        <mxCell id="gOSS8emD0hogOPw5Sccv-58" value="" style="shape=mxgraph.signs.transportation.car_4;html=1;pointerEvents=1;fillColor=#d5e8d4;strokeColor=#82b366;verticalLabelPosition=bottom;verticalAlign=top;align=center;opacity=40;" vertex="1" parent="1">
          <mxGeometry x="620" y="225" width="34.19" height="30" as="geometry" />
        </mxCell>
        <mxCell id="gOSS8emD0hogOPw5Sccv-59" value="" style="shape=mxgraph.signs.transportation.car_4;html=1;pointerEvents=1;fillColor=#d5e8d4;strokeColor=#82b366;verticalLabelPosition=bottom;verticalAlign=top;align=center;opacity=40;" vertex="1" parent="1">
          <mxGeometry x="790" y="280" width="34.19" height="30" as="geometry" />
        </mxCell>
        <mxCell id="gOSS8emD0hogOPw5Sccv-60" value="" style="shape=mxgraph.signs.transportation.car_4;html=1;pointerEvents=1;fillColor=#d5e8d4;strokeColor=#82b366;verticalLabelPosition=bottom;verticalAlign=top;align=center;opacity=40;" vertex="1" parent="1">
          <mxGeometry x="805.81" y="195" width="34.19" height="30" as="geometry" />
        </mxCell>
        <mxCell id="gOSS8emD0hogOPw5Sccv-61" value="" style="shape=mxgraph.signs.transportation.car_4;html=1;pointerEvents=1;fillColor=#d5e8d4;strokeColor=#82b366;verticalLabelPosition=bottom;verticalAlign=top;align=center;opacity=40;" vertex="1" parent="1">
          <mxGeometry x="780" y="100" width="34.19" height="30" as="geometry" />
        </mxCell>
        <mxCell id="gOSS8emD0hogOPw5Sccv-62" value="" style="shape=mxgraph.signs.transportation.car_4;html=1;pointerEvents=1;fillColor=#d5e8d4;strokeColor=#82b366;verticalLabelPosition=bottom;verticalAlign=top;align=center;opacity=40;" vertex="1" parent="1">
          <mxGeometry x="680" y="320" width="34.19" height="30" as="geometry" />
        </mxCell>
        <mxCell id="gOSS8emD0hogOPw5Sccv-63" value="" style="shape=mxgraph.signs.transportation.car_4;html=1;pointerEvents=1;fillColor=#d5e8d4;strokeColor=#82b366;verticalLabelPosition=bottom;verticalAlign=top;align=center;opacity=40;" vertex="1" parent="1">
          <mxGeometry x="835.81" y="340" width="34.19" height="30" as="geometry" />
        </mxCell>
        <mxCell id="gOSS8emD0hogOPw5Sccv-64" value="" style="shape=mxgraph.signs.transportation.car_4;html=1;pointerEvents=1;fillColor=#d5e8d4;strokeColor=#82b366;verticalLabelPosition=bottom;verticalAlign=top;align=center;opacity=40;" vertex="1" parent="1">
          <mxGeometry x="745.81" y="20" width="34.19" height="30" as="geometry" />
        </mxCell>
        <mxCell id="gOSS8emD0hogOPw5Sccv-65" value="" style="shape=mxgraph.signs.transportation.car_4;html=1;pointerEvents=1;fillColor=#d5e8d4;strokeColor=#82b366;verticalLabelPosition=bottom;verticalAlign=top;align=center;opacity=40;" vertex="1" parent="1">
          <mxGeometry x="745.81" y="140" width="34.19" height="30" as="geometry" />
        </mxCell>
        <mxCell id="gOSS8emD0hogOPw5Sccv-66" value="" style="shape=mxgraph.signs.transportation.car_4;html=1;pointerEvents=1;fillColor=#d5e8d4;strokeColor=#82b366;verticalLabelPosition=bottom;verticalAlign=top;align=center;opacity=40;" vertex="1" parent="1">
          <mxGeometry x="600" y="150" width="34.19" height="30" as="geometry" />
        </mxCell>
        <mxCell id="gOSS8emD0hogOPw5Sccv-67" value="" style="shape=mxgraph.signs.transportation.car_4;html=1;pointerEvents=1;fillColor=#d5e8d4;strokeColor=#82b366;verticalLabelPosition=bottom;verticalAlign=top;align=center;rotation=15;" vertex="1" parent="1">
          <mxGeometry x="790" y="280" width="34.19" height="30" as="geometry" />
        </mxCell>
        <mxCell id="gOSS8emD0hogOPw5Sccv-68" value="" style="shape=mxgraph.signs.transportation.car_4;html=1;pointerEvents=1;fillColor=#d5e8d4;strokeColor=#82b366;verticalLabelPosition=bottom;verticalAlign=top;align=center;" vertex="1" parent="1">
          <mxGeometry x="835.8100000000001" y="340" width="34.19" height="30" as="geometry" />
        </mxCell>
        <mxCell id="gOSS8emD0hogOPw5Sccv-69" value="" style="shape=mxgraph.signs.transportation.car_4;html=1;pointerEvents=1;fillColor=#d5e8d4;strokeColor=#82b366;verticalLabelPosition=bottom;verticalAlign=top;align=center;rotation=-172;" vertex="1" parent="1">
          <mxGeometry x="870" y="195" width="34.19" height="30" as="geometry" />
        </mxCell>
        <mxCell id="gOSS8emD0hogOPw5Sccv-70" value="" style="shape=mxgraph.signs.transportation.car_4;html=1;pointerEvents=1;fillColor=#d5e8d4;strokeColor=#82b366;verticalLabelPosition=bottom;verticalAlign=top;align=center;rotation=15;" vertex="1" parent="1">
          <mxGeometry x="805.8100000000001" y="195" width="34.19" height="30" as="geometry" />
        </mxCell>
        <mxCell id="gOSS8emD0hogOPw5Sccv-71" value="" style="shape=mxgraph.signs.transportation.car_4;html=1;pointerEvents=1;fillColor=#d5e8d4;strokeColor=#82b366;verticalLabelPosition=bottom;verticalAlign=top;align=center;rotation=-5;" vertex="1" parent="1">
          <mxGeometry x="780" y="100" width="34.19" height="30" as="geometry" />
        </mxCell>
        <mxCell id="gOSS8emD0hogOPw5Sccv-72" value="" style="shape=mxgraph.signs.transportation.car_4;html=1;pointerEvents=1;fillColor=#d5e8d4;strokeColor=#82b366;verticalLabelPosition=bottom;verticalAlign=top;align=center;rotation=5;" vertex="1" parent="1">
          <mxGeometry x="745.8100000000001" y="20" width="34.19" height="30" as="geometry" />
        </mxCell>
        <mxCell id="gOSS8emD0hogOPw5Sccv-73" value="" style="shape=mxgraph.signs.transportation.car_4;html=1;pointerEvents=1;fillColor=#d5e8d4;strokeColor=#82b366;verticalLabelPosition=bottom;verticalAlign=top;align=center;" vertex="1" parent="1">
          <mxGeometry x="745.8099999999998" y="140" width="34.19" height="30" as="geometry" />
        </mxCell>
        <mxCell id="gOSS8emD0hogOPw5Sccv-74" value="" style="shape=mxgraph.signs.transportation.car_4;html=1;pointerEvents=1;fillColor=#d5e8d4;strokeColor=#82b366;verticalLabelPosition=bottom;verticalAlign=top;align=center;rotation=-15;" vertex="1" parent="1">
          <mxGeometry x="660" y="110" width="34.19" height="30" as="geometry" />
        </mxCell>
        <mxCell id="gOSS8emD0hogOPw5Sccv-75" value="" style="shape=mxgraph.signs.transportation.car_4;html=1;pointerEvents=1;fillColor=#d5e8d4;strokeColor=#82b366;verticalLabelPosition=bottom;verticalAlign=top;align=center;rotation=5;" vertex="1" parent="1">
          <mxGeometry x="600" y="150" width="34.19" height="30" as="geometry" />
        </mxCell>
        <mxCell id="gOSS8emD0hogOPw5Sccv-76" value="" style="shape=mxgraph.signs.transportation.car_4;html=1;pointerEvents=1;fillColor=#d5e8d4;strokeColor=#82b366;verticalLabelPosition=bottom;verticalAlign=top;align=center;rotation=-15;" vertex="1" parent="1">
          <mxGeometry x="620" y="225" width="34.19" height="30" as="geometry" />
        </mxCell>
        <mxCell id="gOSS8emD0hogOPw5Sccv-77" value="" style="shape=mxgraph.signs.transportation.car_4;html=1;pointerEvents=1;fillColor=#d5e8d4;strokeColor=#82b366;verticalLabelPosition=bottom;verticalAlign=top;align=center;" vertex="1" parent="1">
          <mxGeometry x="680" y="320" width="34.19" height="30" as="geometry" />
        </mxCell>
        <mxCell id="gOSS8emD0hogOPw5Sccv-78" value="" style="shape=flexArrow;endArrow=classic;html=1;rounded=0;fontSize=16;fillColor=#f5f5f5;strokeColor=#666666;" edge="1" parent="1">
          <mxGeometry width="50" height="50" relative="1" as="geometry">
            <mxPoint x="460" y="210" as="sourcePoint" />
            <mxPoint x="520" y="210" as="targetPoint" />
          </mxGeometry>
        </mxCell>
        <mxCell id="gOSS8emD0hogOPw5Sccv-79" value="&lt;font style=&quot;font-size: 24px;&quot;&gt;Initially perceived vehicles&lt;/font&gt;" style="text;html=1;strokeColor=none;fillColor=none;align=center;verticalAlign=bottom;whiteSpace=wrap;rounded=0;fontSize=24;" vertex="1" parent="1">
          <mxGeometry x="70" y="420" width="320" height="30" as="geometry" />
        </mxCell>
        <mxCell id="gOSS8emD0hogOPw5Sccv-80" value="&lt;font style=&quot;font-size: 24px;&quot;&gt;Heading Modifier&lt;/font&gt;" style="text;html=1;strokeColor=none;fillColor=none;align=center;verticalAlign=bottom;whiteSpace=wrap;rounded=0;fontSize=24;" vertex="1" parent="1">
          <mxGeometry x="590" y="420" width="320" height="30" as="geometry" />
        </mxCell>
      </root>
    </mxGraphModel>
  </diagram>
</mxfile>
